<?xml version="1.0" encoding="UTF-8" standalone="no"?>
<svg
   width="512"
   height="512"
   viewBox="0 0 512 512"
   fill="none"
   version="1.1"
   id="svg9"
   sodipodi:docname="logo.svg"
   inkscape:version="1.4.2 (ebf0e940, 2025-05-08)"
   xmlns:inkscape="http://www.inkscape.org/namespaces/inkscape"
   xmlns:sodipodi="http://sodipodi.sourceforge.net/DTD/sodipodi-0.dtd"
   xmlns="http://www.w3.org/2000/svg"
   xmlns:svg="http://www.w3.org/2000/svg">
  <sodipodi:namedview
     id="namedview9"
     pagecolor="#ffffff"
     bordercolor="#000000"
     borderopacity="0.25"
     inkscape:showpageshadow="2"
     inkscape:pageopacity="0.0"
     inkscape:pagecheckerboard="0"
     inkscape:deskcolor="#d1d1d1"
     inkscape:zoom="0.62696937"
     inkscape:cx="72.571329"
     inkscape:cy="19.937178"
     inkscape:window-width="1728"
     inkscape:window-height="966"
     inkscape:window-x="0"
     inkscape:window-y="33"
     inkscape:window-maximized="1"
     inkscape:current-layer="svg9" />
  <defs
     id="defs1">
    <clipPath
       id="playClip">
      <path
         d="           M106 82           C106 55 136 38 160 52           L407 193           C433 208 433 246 407 261           L160 402           C136 416 106 399 106 372           Z         "
         id="path1" />
    </clipPath>
  </defs>
  <!-- Main play shape -->
  <g
     clip-path="url(#playClip)"
     id="g2">
    <rect
       width="512"
       height="512"
       fill="#2468F2"
       id="rect1" />
    <!-- Pink lower region -->
    <path
       d="         M80 355         C132 294 161 226 208 227         C260 228 284 261 337 241         C375 227 406 192 455 200         L512 512         L0 512         Z       "
       fill="#F5388A"
       id="path2" />
  </g>
  <!-- Route moved higher -->
  <path
     d="m 134.61099,315.11577 c 9.48146,-32.42532 26.33736,-61.3452 53.72821,-93.77052 38.97929,11.39268 79.01207,22.78536 120.09835,17.52721 41.08627,-5.25817 74.7981,-22.78536 100.08196,-47.32344"
     stroke="#ffffff"
     stroke-width="23.0605"
     stroke-linecap="round"
     stroke-linejoin="round"
     id="path3" />
  <!-- Route nodes moved higher -->
  <circle
     cx="134"
     cy="306"
     r="34"
     fill="white"
     id="circle3" />
  <circle
     cx="134"
     cy="306"
     r="17"
     fill="#2468F2"
     id="circle4" />
  <circle
     cx="190.94412"
     cy="217.37276"
     r="28"
     fill="#ffffff"
     id="circle5" />
  <circle
     cx="190.94412"
     cy="217.37276"
     r="13"
     fill="#2468f2"
     id="circle6" />
  <circle
     cx="405.02487"
     cy="199.58403"
     r="24"
     fill="#ffffff"
     id="circle7" />
  <circle
     cx="405.02487"
     cy="199.58403"
     r="10"
     fill="#2468f2"
     id="circle8" />
  <!-- Orange pin moved higher -->
  <path
     d="m 406.80751,23.298123 c -37,0 -66,29 -66,66 0,47.999997 66,99.999997 66,99.999997 0,0 66,-52 66,-99.999997 0,-37 -29,-66 -66,-66 z"
     fill="#ff7a1a"
     id="path8" />
  <circle
     cx="406.80753"
     cy="89.298119"
     r="22"
     fill="#ffffff"
     id="circle9" />
</svg>
